<svg width="132" height="132" viewBox="0 0 132 132" fill="none" xmlns="http://www.w3.org/2000/svg">
<path d="M66.4 131.2C102.63 131.2 132 101.83 132 65.6C132 29.3701 102.63 0 66.4 0C30.1702 0 0.800049 29.3701 0.800049 65.6C0.800049 101.83 30.1702 131.2 66.4 131.2Z" fill="#B50014"/>
<path d="M97.7247 88.1618C96.6834 88.0751 95.729 87.9883 94.6877 87.9015C94.0803 87.8148 93.5596 88.0751 93.039 88.6825C92.5184 89.2031 92.2581 89.8105 92.2581 90.5047C92.2581 91.546 92.7787 92.5005 93.7332 93.3682C94.6877 94.2359 95.729 94.7566 96.7702 94.8433C98.0718 94.9301 99.0263 94.6698 99.7205 93.9756C100.415 93.2814 100.501 91.9798 99.9808 90.0708C99.6337 89.0296 98.8528 88.4222 97.7247 88.1618Z" fill="white"/>
<path d="M102.671 72.3694C103.539 71.0678 103.018 69.4191 101.196 69.2456C100.155 69.1588 99.5472 68.8117 99.634 67.4233C99.7207 63.6921 98.0721 60.9154 95.2086 58.7461C92.0848 56.4032 88.4403 55.7958 84.7959 55.4487C82.1059 55.1884 79.416 54.9281 76.4657 54.3207C77.8541 53.5397 79.0689 52.9323 80.1102 52.2382C83.5811 50.1556 86.7916 47.726 89.4816 44.5154C91.998 41.4784 92.6922 36.6191 90.87 33.1482C88.8742 29.2434 85.3165 28.3757 81.4985 28.4625C78.5483 28.5493 75.598 29.2434 72.9081 30.545C66.5737 33.5821 60.7599 37.4001 55.2932 41.9122C53.1239 43.7344 50.9546 45.4699 48.6985 47.3789C48.9588 45.817 49.3059 44.5154 49.4795 43.127C50.1737 38.962 49.8266 34.8837 47.8308 31.1524C46.8763 29.5038 45.5747 28.3757 43.7525 28.0286C42.9715 27.8551 42.4509 28.1154 42.017 28.8096C41.67 29.5038 41.4096 30.1979 41.9303 30.8921C42.2774 31.4128 42.6245 31.9334 43.1451 32.2805C44.8805 33.6688 45.4879 35.5778 45.5747 37.7471C45.9218 43.3006 43.7525 48.1598 41.67 53.1059C41.4964 53.453 41.1493 53.7133 40.8022 54.0604C38.8932 55.9694 36.8975 57.7048 35.162 59.7006C31.9514 63.345 28.7409 67.0762 26.9186 71.762C25.27 76.1006 26.6583 82.0879 30.1292 84.8646C31.5176 85.9927 33.1662 85.9059 34.4678 84.6911C35.5959 83.6498 36.2901 82.2614 36.9842 80.8731C44.5334 65.6011 53.9916 51.8911 66.1398 40.1768C69.7842 36.7059 73.9493 34.1895 78.8954 33.3217C81.6721 32.8011 84.8826 35.9249 85.0562 38.4413C85.2297 41.999 83.3207 44.2551 81.0647 46.3376C77.5938 49.4614 73.6022 51.544 69.4371 53.453C67.2678 54.4075 65.2721 55.4487 63.4498 57.0106C61.5409 58.6593 60.6731 60.8286 61.3673 63.4318C61.9747 65.8614 63.7969 66.6424 65.8795 66.8159C71.3461 67.163 76.8128 67.3366 82.2795 67.6837C84.5356 67.8572 86.8784 67.8572 88.7006 69.7662C88.5271 70.1133 88.2668 70.1133 88.0065 70.2001C76.6393 72.4561 65.4456 75.4932 54.7726 80.3524C52.6033 81.3069 50.6943 82.6085 49.0456 84.344C46.2689 87.2075 46.0954 91.7196 50.1737 94.1493C54.8594 96.8392 59.7186 96.3186 64.5779 95.5376C73.3419 94.1493 81.2382 90.071 88.6139 85.0382C92.5186 82.3482 95.6424 78.9641 97.8985 74.799C98.5059 73.671 99.1133 72.9768 100.502 73.2371C101.196 73.2371 102.15 73.2371 102.671 72.3694ZM89.5684 75.1461C89.0477 77.3154 87.5726 78.9641 86.0107 80.2657C79.2424 85.6456 71.9535 89.8106 63.4498 91.2858C62.4086 91.4593 61.4541 91.4593 60.4128 91.5461C59.2848 91.5461 58.1567 91.5461 57.1155 91.1122C55.2065 90.3313 54.5991 88.6826 55.38 86.7736C55.9006 85.6456 56.6816 84.7778 57.7229 84.0837C62.4953 80.9598 67.8752 79.5715 73.0816 77.836C78.1144 76.1874 83.234 75.0593 88.4403 73.8445C89.5684 73.671 89.7419 74.1048 89.5684 75.1461Z" fill="white"/>
<path d="M44.1862 108.205C45.1407 106.556 44.273 105.168 42.364 104.04L39.9343 102.565L34.6412 111.589L37.0708 112.978C38.8931 114.106 40.8021 114.54 41.9301 112.631C42.711 111.329 42.2772 110.027 41.1491 109.246C42.364 109.68 43.4052 109.42 44.1862 108.205ZM40.5417 111.763C39.8476 112.978 38.6327 112.631 37.5047 111.936L36.5502 111.329L38.3724 108.292L39.2401 108.813C40.1946 109.42 41.3227 110.374 40.5417 111.763ZM39.5872 107.685L38.8931 107.251L40.5417 104.474L41.9301 105.255C42.711 105.689 43.4052 106.556 42.7978 107.598C42.0169 108.899 40.8888 108.379 39.5872 107.685Z" fill="white"/>
<path d="M50.087 107.86L47.6573 106.992L44.0129 116.797L45.4012 117.318L47.0499 112.979L47.9176 113.327C48.6986 113.587 49.1325 113.76 49.2192 114.888L49.4795 118.88L51.0415 119.487L50.6076 114.888C50.5208 114.194 50.434 113.847 50.0002 113.587C51.215 113.847 52.4298 113.327 52.8637 112.112C53.7314 109.595 51.9959 108.554 50.087 107.86ZM51.3885 111.418C51.0415 112.372 50.0002 112.632 48.6986 112.199L47.4838 111.765L48.6118 108.814L50.0002 109.335C51.215 109.682 51.7356 110.55 51.3885 111.418Z" fill="white"/>
<path d="M72.127 110.721L64.144 110.982V112.283L67.4413 112.197L67.7884 121.394L69.2635 121.308L68.9164 112.11L72.2138 112.023L72.127 110.721Z" fill="white"/>
<path d="M79.6762 108.986L80.7175 113.238L75.7714 114.453L74.8169 110.115L73.3418 110.462L75.7714 120.701L77.2466 120.354L76.1185 115.668L80.9778 114.54L82.1058 119.226L83.581 118.879L81.1513 108.639L79.6762 108.986Z" fill="white"/>
<path d="M59.2845 110.375L53.2104 120.006L54.7723 120.267L56.2475 117.837L61.367 118.618L61.9744 121.395L63.6231 121.655L60.8464 110.635L59.2845 110.375ZM56.9416 116.622L59.8051 111.85L61.0199 117.316L56.9416 116.622Z" fill="white"/>
<path d="M95.1219 110.896C94.7748 111.069 94.688 111.59 94.8616 111.937C95.0351 112.198 95.2954 112.284 95.469 112.284C95.6425 112.284 95.7293 112.284 95.9028 112.198C96.2499 111.937 96.3367 111.503 96.1631 111.156C95.9896 110.722 95.469 110.636 95.1219 110.896Z" fill="white"/>
<path d="M98.8529 108.293C98.5058 108.553 98.419 108.987 98.6793 109.334C98.8529 109.508 99.0264 109.595 99.2867 109.595C99.4603 109.595 99.6338 109.508 99.7206 109.421C100.068 109.161 100.154 108.727 99.8941 108.38C99.7206 108.12 99.1999 108.033 98.8529 108.293Z" fill="white"/>
<path d="M102.41 105.431C102.063 105.691 102.063 106.212 102.324 106.472C102.497 106.646 102.671 106.733 102.931 106.733C103.105 106.733 103.278 106.646 103.452 106.559C103.799 106.299 103.799 105.778 103.539 105.518C103.191 105.171 102.671 105.084 102.41 105.431Z" fill="white"/>
<path d="M121.067 68.9854C120.633 68.9854 120.286 69.2457 120.286 69.6795C120.286 70.1134 120.546 70.4605 120.98 70.4605C120.98 70.4605 120.98 70.4605 121.067 70.4605C121.414 70.4605 121.761 70.2002 121.848 69.7663C121.761 69.3324 121.501 68.9854 121.067 68.9854Z" fill="white"/>
<path d="M114.732 90.9374C114.385 90.7638 113.865 90.8506 113.691 91.1977C113.517 91.5448 113.604 91.9786 113.951 92.2389C114.038 92.3257 114.212 92.3257 114.298 92.3257C114.559 92.3257 114.819 92.1522 114.993 91.8919C115.253 91.6315 115.079 91.1977 114.732 90.9374Z" fill="white"/>
<path d="M116.728 86.7736C116.381 86.6001 115.86 86.7737 115.687 87.1207C115.513 87.4678 115.687 87.9017 116.121 88.162C116.207 88.162 116.294 88.2488 116.381 88.2488C116.641 88.2488 116.988 88.0752 117.075 87.8149C117.249 87.4678 117.075 86.9472 116.728 86.7736Z" fill="white"/>
<path d="M119.591 78.0957C119.157 78.0089 118.81 78.2692 118.637 78.6163C118.55 79.0502 118.81 79.3973 119.157 79.5708C119.244 79.5708 119.244 79.5708 119.331 79.5708C119.678 79.5708 119.938 79.3105 120.025 78.9634C120.285 78.6163 120.025 78.1824 119.591 78.0957Z" fill="white"/>
<path d="M112.389 94.9297C112.042 94.6694 111.522 94.7561 111.348 95.1032C111.088 95.4503 111.175 95.8842 111.522 96.1445C111.609 96.2313 111.782 96.2313 111.956 96.2313C112.216 96.2313 112.476 96.1445 112.563 95.8842C112.823 95.6239 112.737 95.19 112.389 94.9297Z" fill="white"/>
<path d="M118.377 82.523C117.943 82.3495 117.509 82.6098 117.422 82.9569C117.249 83.3907 117.509 83.7378 117.856 83.9114C117.943 83.9114 118.03 83.9114 118.116 83.9114C118.464 83.9114 118.724 83.7378 118.811 83.3907C118.984 83.0436 118.724 82.6098 118.377 82.523Z" fill="white"/>
<path d="M120.546 73.5843C120.112 73.4975 119.765 73.7578 119.679 74.1917C119.592 74.6255 119.852 74.9726 120.286 75.0594H120.373C120.72 75.0594 121.067 74.7991 121.154 74.452C121.24 74.0181 120.893 73.671 120.546 73.5843Z" fill="white"/>
<path d="M109.699 98.6623C109.352 98.402 108.918 98.4888 108.658 98.7491C108.398 99.0962 108.484 99.53 108.745 99.7903C108.918 99.8771 109.005 99.9639 109.179 99.9639C109.352 99.9639 109.613 99.8771 109.786 99.7036C110.046 99.4433 110.046 98.9226 109.699 98.6623Z" fill="white"/>
<path d="M105.621 102.22C105.361 102.48 105.361 103.001 105.621 103.261C105.795 103.434 105.968 103.434 106.142 103.434C106.315 103.434 106.576 103.348 106.662 103.174C106.923 102.827 106.923 102.393 106.662 102.133C106.402 101.873 105.968 101.873 105.621 102.22Z" fill="white"/>
<path d="M70.8252 11.2815C70.912 11.2815 70.912 11.2815 70.8252 11.2815C71.2591 11.2815 71.6062 11.0212 71.6062 10.5873C71.6062 10.1535 71.3459 9.8064 70.912 9.8064C70.4781 9.8064 70.131 10.0667 70.131 10.5006C70.131 10.8477 70.3914 11.1948 70.8252 11.2815Z" fill="white"/>
<path d="M29.2612 25.5119C29.4348 25.5119 29.6083 25.4251 29.7818 25.3383C30.0422 25.078 30.1289 24.5574 29.7818 24.297C29.5215 24.0367 29.0009 23.95 28.7406 24.297C28.3935 24.5574 28.3935 25.078 28.7406 25.3383C28.8273 25.4251 29.0877 25.5119 29.2612 25.5119Z" fill="white"/>
<path d="M48.5248 14.0576C48.6116 14.0576 48.6984 14.0576 48.7852 14.0576C49.219 13.8841 49.3926 13.4502 49.219 13.1031C49.0455 12.6693 48.6116 12.4957 48.2645 12.6693C47.8307 12.8428 47.6571 13.2767 47.8307 13.6238C47.9174 13.7973 48.2645 14.0576 48.5248 14.0576Z" fill="white"/>
<path d="M61.8009 11.2815C61.8876 11.2815 61.8876 11.2815 61.8009 11.2815C62.3215 11.2815 62.5818 10.8477 62.5818 10.5006C62.5818 10.0667 62.148 9.8064 61.8009 9.8064C61.367 9.8064 61.1067 10.2403 61.1067 10.5873C61.1067 10.9344 61.4538 11.2815 61.8009 11.2815Z" fill="white"/>
<path d="M57.3754 11.8016H57.4622C57.896 11.7148 58.1563 11.3677 58.0696 10.9338C57.9828 10.5 57.6357 10.2397 57.2019 10.3264C56.768 10.4132 56.5077 10.7603 56.5944 11.1942C56.6812 11.5413 56.9415 11.8016 57.3754 11.8016Z" fill="white"/>
<path d="M52.9501 12.7561C53.0369 12.7561 53.0369 12.7561 53.1237 12.7561C53.5575 12.6693 53.7311 12.2355 53.6443 11.8016C53.5575 11.3677 53.1237 11.1942 52.6898 11.281C52.256 11.3677 52.0824 11.8016 52.1692 12.2355C52.256 12.4958 52.603 12.7561 52.9501 12.7561Z" fill="white"/>
<path d="M44.3596 15.7073C44.4464 15.7073 44.5331 15.7073 44.7067 15.6205C45.0538 15.447 45.2273 15.0131 45.1406 14.666C44.967 14.2321 44.5331 14.1454 44.0993 14.2321C43.7522 14.4057 43.5787 14.8395 43.6654 15.2734C43.7522 15.5337 44.0993 15.7073 44.3596 15.7073Z" fill="white"/>
<path d="M32.7323 22.6495C32.9058 22.6495 33.0793 22.5627 33.1661 22.476C33.5132 22.2156 33.6 21.7818 33.3397 21.4347C33.0793 21.0876 32.5587 21.0876 32.2984 21.3479C31.9513 21.6082 31.8645 22.0421 32.2116 22.3892C32.2984 22.476 32.4719 22.6495 32.7323 22.6495Z" fill="white"/>
<path d="M12.1672 56.8372H12.2539C12.601 56.8372 12.9481 56.5769 13.0349 56.2298C13.1217 55.796 12.8613 55.4489 12.4275 55.3621C11.9936 55.2753 11.6465 55.5356 11.5597 55.9695C11.473 56.3166 11.7333 56.7504 12.1672 56.8372Z" fill="white"/>
<path d="M13.0349 52.3255C13.1217 52.3255 13.1217 52.3255 13.2085 52.3255C13.5556 52.3255 13.8159 52.0652 13.9894 51.7181C14.0762 51.2843 13.8159 50.9372 13.4688 50.7636C13.0349 50.6769 12.6879 50.9372 12.5143 51.2843C12.4275 51.8917 12.6011 52.2388 13.0349 52.3255Z" fill="white"/>
<path d="M40.2815 17.6147C40.3683 17.6147 40.5419 17.6147 40.6286 17.528C40.9757 17.3544 41.1493 16.9206 40.9757 16.4867C40.8022 16.1396 40.2815 15.9661 39.9345 16.1396C39.5874 16.3132 39.4138 16.8338 39.5874 17.1809C39.7609 17.528 40.0212 17.6147 40.2815 17.6147Z" fill="white"/>
<path d="M36.3768 19.9588C36.5503 19.9588 36.6371 19.9588 36.8106 19.872C37.1577 19.6117 37.2445 19.1779 37.0709 18.8308C36.8106 18.4837 36.3768 18.3969 36.0297 18.6572C35.6826 18.9175 35.5958 19.3514 35.8561 19.6985C35.9429 19.872 36.1165 19.9588 36.3768 19.9588Z" fill="white"/>
<path d="M26.0508 28.7222C26.2244 28.7222 26.4847 28.6354 26.5715 28.4618C26.8318 28.1148 26.8318 27.6809 26.5715 27.4206C26.2244 27.1603 25.7905 27.1603 25.5302 27.4206C25.2699 27.7677 25.2699 28.2015 25.5302 28.4618C25.7037 28.7222 25.8773 28.7222 26.0508 28.7222Z" fill="white"/>
<path d="M118.203 48.0718C118.29 48.0718 118.376 48.0718 118.463 48.0718C118.897 47.8983 119.071 47.4644 118.897 47.1173C118.724 46.6834 118.29 46.5099 117.943 46.6834C117.509 46.857 117.335 47.2041 117.509 47.6379C117.596 47.8983 117.943 48.0718 118.203 48.0718Z" fill="white"/>
<path d="M99.547 22.4747C99.7205 22.5615 99.8941 22.6483 99.9809 22.6483C100.154 22.6483 100.415 22.5615 100.588 22.3879C100.849 22.0409 100.762 21.607 100.415 21.3467C100.068 21.0864 99.6338 21.1731 99.3735 21.5202C99.1999 21.6938 99.1999 22.2144 99.547 22.4747Z" fill="white"/>
<path d="M118.811 51.8052C118.897 52.1523 119.244 52.4126 119.505 52.4126C119.592 52.4126 119.678 52.4126 119.678 52.4126C120.112 52.3258 120.286 51.892 120.199 51.4581C120.112 51.0242 119.678 50.8507 119.244 50.9375C118.897 51.0242 118.637 51.4581 118.811 51.8052Z" fill="white"/>
<path d="M119.679 56.2298C119.765 56.5769 120.026 56.8372 120.459 56.8372H120.546C120.98 56.7504 121.24 56.4034 121.154 55.9695C121.067 55.5356 120.72 55.2753 120.286 55.3621C119.852 55.4489 119.592 55.796 119.679 56.2298Z" fill="white"/>
<path d="M120.199 60.6552C120.199 61.0891 120.546 61.3494 120.98 61.3494C120.98 61.3494 120.98 61.3494 121.067 61.3494C121.501 61.3494 121.761 60.9155 121.761 60.5685C121.761 60.1346 121.327 59.8743 120.893 59.8743C120.546 59.8743 120.199 60.2214 120.199 60.6552Z" fill="white"/>
<path d="M79.6761 12.6703C79.7628 12.6703 79.7628 12.6703 79.8496 12.6703C80.1967 12.6703 80.457 12.41 80.5438 12.0629C80.6306 11.629 80.3702 11.2819 80.0232 11.1084C79.5893 11.0216 79.2422 11.2819 79.1554 11.629C78.9819 12.2364 79.2422 12.5835 79.6761 12.6703Z" fill="white"/>
<path d="M75.2506 11.8016H75.3374C75.6845 11.8016 76.0316 11.5413 76.1184 11.1942C76.2051 10.7603 75.9448 10.4132 75.5109 10.3264C75.0771 10.2397 74.73 10.5 74.6432 10.9338C74.5564 11.3677 74.9035 11.7148 75.2506 11.8016Z" fill="white"/>
<path d="M83.9279 13.9702C84.0147 13.9702 84.1014 14.057 84.1882 14.057C84.5353 14.057 84.7956 13.8834 84.8824 13.5363C85.0559 13.1025 84.7956 12.6686 84.4485 12.5819C84.0147 12.4083 83.5808 12.6686 83.494 13.0157C83.3205 13.4496 83.494 13.8834 83.9279 13.9702Z" fill="white"/>
<path d="M92.0844 17.6155C92.1712 17.7023 92.3447 17.7023 92.4315 17.7023C92.6918 17.7023 92.9521 17.5287 93.1257 17.2684C93.2992 16.9213 93.2124 16.4007 92.7786 16.2272C92.4315 16.0536 91.9108 16.1404 91.7373 16.4875C91.5638 16.9213 91.7373 17.3552 92.0844 17.6155Z" fill="white"/>
<path d="M95.9024 19.8709C95.9891 19.9577 96.1627 19.9577 96.3362 19.9577C96.5965 19.9577 96.8569 19.8709 96.9436 19.6106C97.2039 19.2635 97.1172 18.7429 96.7701 18.5693C96.423 18.309 95.9891 18.3958 95.7288 18.7429C95.4685 19.1767 95.5553 19.6106 95.9024 19.8709Z" fill="white"/>
<path d="M88.093 15.6211C88.1798 15.6211 88.2665 15.7079 88.3533 15.7079C88.6136 15.7079 88.9607 15.5344 89.0475 15.274C89.221 14.9269 89.0475 14.4063 88.7004 14.2328C88.3533 14.0592 87.8327 14.2328 87.6591 14.6666C87.5724 15.0137 87.7459 15.4476 88.093 15.6211Z" fill="white"/>
<path d="M14.7702 46.5985C14.3364 46.4249 13.9025 46.6852 13.8157 47.0323C13.6422 47.4662 13.9025 47.9 14.2496 47.9868C14.3364 47.9868 14.4231 47.9868 14.5099 47.9868C14.857 47.9868 15.1173 47.8133 15.2041 47.4662C15.3776 47.1191 15.1173 46.6852 14.7702 46.5985Z" fill="white"/>
<path d="M23.6211 30.8049C23.274 30.5446 22.8401 30.6314 22.5798 30.9785C22.3195 31.3256 22.4062 31.7594 22.6666 32.0197C22.8401 32.1065 23.0136 32.1933 23.1004 32.1933C23.274 32.1933 23.5343 32.1065 23.7078 31.933C23.9681 31.5859 23.8814 31.0652 23.6211 30.8049Z" fill="white"/>
<path d="M116.294 42.4339C115.947 42.6074 115.774 43.0413 115.86 43.3884C115.947 43.6487 116.294 43.8222 116.554 43.8222C116.641 43.8222 116.728 43.8222 116.815 43.7355C117.162 43.5619 117.335 43.1281 117.162 42.6942C117.075 42.4339 116.641 42.2603 116.294 42.4339Z" fill="white"/>
<path d="M114.212 38.3548C113.865 38.5283 113.691 38.9622 113.951 39.3961C114.125 39.6564 114.385 39.8299 114.646 39.8299C114.732 39.8299 114.906 39.8299 114.993 39.7432C115.34 39.5696 115.513 39.049 115.253 38.7019C115.079 38.268 114.559 38.1813 114.212 38.3548Z" fill="white"/>
<path d="M11.6465 61.3494C11.7333 61.3494 11.7333 61.3494 11.6465 61.3494C12.0804 61.3494 12.4275 61.0891 12.4275 60.6552C12.4275 60.2214 12.1672 59.8743 11.7333 59.8743C11.2995 59.8743 10.9524 60.1346 10.9524 60.5685C10.9524 60.9155 11.2995 61.2626 11.6465 61.3494Z" fill="white"/>
<path d="M109.179 30.8923C108.832 31.1527 108.745 31.5865 109.005 31.9336C109.179 32.1072 109.352 32.1939 109.613 32.1939C109.786 32.1939 109.96 32.1072 110.047 32.0204C110.394 31.7601 110.394 31.3262 110.22 30.9791C109.96 30.632 109.439 30.632 109.179 30.8923Z" fill="white"/>
<path d="M106.142 27.4212C105.795 27.6815 105.795 28.2021 106.142 28.4624C106.315 28.636 106.489 28.7227 106.662 28.7227C106.836 28.7227 107.01 28.636 107.183 28.5492C107.443 28.2889 107.53 27.7682 107.183 27.5079C106.923 27.1608 106.489 27.1608 106.142 27.4212Z" fill="white"/>
<path d="M18.5016 38.3541C18.1545 38.1806 17.6339 38.2673 17.4603 38.6144C17.2868 38.9615 17.3736 39.4821 17.7207 39.6557C17.8074 39.7425 17.981 39.7425 18.0677 39.7425C18.3281 39.7425 18.5884 39.5689 18.7619 39.3086C19.0222 38.9615 18.8487 38.5277 18.5016 38.3541Z" fill="white"/>
<path d="M111.869 34.5356C111.522 34.7959 111.435 35.2298 111.695 35.5769C111.869 35.7504 112.042 35.924 112.303 35.924C112.476 35.924 112.563 35.9239 112.736 35.8372C113.084 35.5769 113.17 35.143 112.91 34.7959C112.65 34.362 112.216 34.2753 111.869 34.5356Z" fill="white"/>
<path d="M20.9313 34.5354C20.5842 34.2751 20.1504 34.3618 19.8901 34.7089C19.6298 35.056 19.7165 35.4899 20.0636 35.7502C20.2372 35.837 20.3239 35.837 20.4975 35.837C20.7578 35.837 21.0181 35.7502 21.1049 35.4899C21.3652 35.2296 21.2784 34.7089 20.9313 34.5354Z" fill="white"/>
<path d="M16.5057 42.3453C16.1586 42.1718 15.638 42.3453 15.5512 42.7792C15.3777 43.1263 15.5512 43.6469 15.8983 43.8204C15.9851 43.8204 16.0719 43.9072 16.2454 43.9072C16.5057 43.9072 16.8528 43.7337 16.9396 43.4734C17.0264 43.0395 16.8528 42.5189 16.5057 42.3453Z" fill="white"/>
<path d="M103.973 24.2105C103.626 23.9501 103.192 23.9501 102.931 24.2972C102.671 24.6443 102.671 25.0782 102.931 25.3385C103.105 25.512 103.279 25.512 103.452 25.512C103.626 25.512 103.886 25.4253 103.973 25.2517C104.32 24.9914 104.32 24.5575 103.973 24.2105Z" fill="white"/>
<path d="M14.1627 82.0016C13.7288 82.1751 13.5553 82.5222 13.7288 82.9561C13.8156 83.3032 14.1627 83.4767 14.423 83.4767C14.5098 83.4767 14.5966 83.4767 14.6833 83.4767C15.1172 83.39 15.2907 82.9561 15.1172 82.5222C15.0304 82.0016 14.5966 81.8281 14.1627 82.0016Z" fill="white"/>
<path d="M13.9026 78.1827C13.8158 77.7488 13.382 77.5753 13.0349 77.6621C12.601 77.7488 12.3407 78.1827 12.5142 78.6166C12.601 78.9637 12.9481 79.224 13.2084 79.224C13.2952 79.224 13.2952 79.224 13.382 79.224C13.8158 79.0504 13.9894 78.6166 13.9026 78.1827Z" fill="white"/>
<path d="M25.183 101.265C24.9227 101.525 24.8359 102.046 25.0962 102.306C25.2697 102.479 25.4433 102.566 25.7036 102.566C25.8772 102.566 26.0507 102.479 26.2242 102.393C26.5713 102.132 26.5713 101.612 26.311 101.351C25.9639 101.004 25.5301 101.004 25.183 101.265Z" fill="white"/>
<path d="M11.8201 70.2876C12.2539 70.2876 12.5143 69.8538 12.5143 69.5067C12.5143 69.0728 12.0804 68.8125 11.7333 68.8125C11.2994 68.8125 11.0391 69.2464 11.0391 69.5934C11.0391 70.0273 11.3862 70.2876 11.8201 70.2876C11.7333 70.2876 11.7333 70.2876 11.8201 70.2876Z" fill="white"/>
<path d="M13.0349 73.8447C13.0349 73.9315 13.0349 73.9315 13.0349 73.8447C12.9481 73.4109 12.601 73.1506 12.1672 73.2373C11.7333 73.3241 11.473 73.6712 11.5597 74.1051C11.6465 74.4521 11.9936 74.7125 12.3407 74.7125H12.4275C12.7746 74.7125 13.1217 74.2786 13.0349 73.8447Z" fill="white"/>
<path d="M22.4062 97.7941C22.0591 98.0545 21.9724 98.4883 22.2327 98.8354C22.4062 99.009 22.5798 99.0957 22.8401 99.0957C23.0136 99.0957 23.1872 99.009 23.274 98.9222C23.621 98.6619 23.7078 98.228 23.4475 97.8809C23.1872 97.6206 22.6666 97.5338 22.4062 97.7941Z" fill="white"/>
<path d="M15.7249 86.1648C15.291 86.3383 15.1174 86.7722 15.291 87.1193C15.3778 87.3796 15.7249 87.5531 15.9852 87.5531C16.0719 87.5531 16.1587 87.5531 16.2455 87.4664C16.5926 87.2928 16.7661 86.8589 16.6793 86.5118C16.5926 86.1648 16.1587 85.9912 15.7249 86.1648Z" fill="white"/>
<path d="M19.8898 94.1506C19.5427 94.4109 19.4559 94.8448 19.6294 95.1918C19.803 95.4522 20.0633 95.5389 20.2368 95.5389C20.4104 95.5389 20.4972 95.5389 20.6707 95.4522C21.0178 95.1918 21.1046 94.758 20.931 94.4109C20.6707 93.977 20.2368 93.8903 19.8898 94.1506Z" fill="white"/>
<path d="M17.634 90.2446C17.2869 90.4182 17.1133 90.852 17.2869 91.2859C17.4604 91.5462 17.7208 91.7198 17.9811 91.7198C18.0678 91.7198 18.2414 91.7198 18.3282 91.633C18.6753 91.4594 18.8488 91.0256 18.6753 90.5917C18.5017 90.1579 17.9811 89.9843 17.634 90.2446Z" fill="white"/>
<path d="M121.24 64.3855C120.806 64.3855 120.459 64.7326 120.459 65.1665C120.459 65.6003 120.806 65.9474 121.24 65.9474C121.674 65.9474 122.021 65.6003 122.021 65.1665C121.934 64.6458 121.674 64.3855 121.24 64.3855Z" fill="white"/>
<path d="M91.5639 114.629C91.9952 114.629 92.3449 114.279 92.3449 113.848C92.3449 113.416 91.9952 113.067 91.5639 113.067C91.1326 113.067 90.783 113.416 90.783 113.848C90.783 114.279 91.1326 114.629 91.5639 114.629Z" fill="white"/>
<path d="M11.5598 65.861C11.9937 65.861 12.3408 65.5139 12.3408 65.08C12.3408 64.6462 11.9937 64.2991 11.5598 64.2991C11.126 64.2991 10.7789 64.6462 10.7789 65.08C10.7789 65.5139 11.126 65.861 11.5598 65.861Z" fill="white"/>
<path d="M66.4 11.1078C66.8338 11.1078 67.1809 10.7607 67.1809 10.3269C67.1809 9.89299 66.8338 9.5459 66.4 9.5459C65.9661 9.5459 65.619 9.89299 65.619 10.3269C65.619 10.7607 65.9661 11.1078 66.4 11.1078Z" fill="white"/>
<path d="M28.3937 104.474C28.1334 104.734 28.0466 105.255 28.307 105.515C28.4805 105.689 28.6541 105.776 28.9144 105.776C29.0879 105.776 29.2615 105.689 29.435 105.602C29.7821 105.342 29.7821 104.821 29.5218 104.561C29.1747 104.214 28.654 104.214 28.3937 104.474Z" fill="white"/>
</svg>
