<svg width="42" height="41" viewBox="0 0 42 41" fill="none" xmlns="http://www.w3.org/2000/svg">
<path d="M21.2679 40.9976C17.2284 40.9974 13.2798 39.7949 9.92123 37.5422C6.56268 35.2896 3.94509 32.0879 2.39945 28.3421C0.853803 24.5963 0.449474 20.4747 1.2377 16.4983C2.02592 12.5219 3.97126 8.8694 6.82768 6.00265C9.6841 3.13591 13.3233 1.18368 17.2852 0.392821C21.247 -0.398038 25.3536 0.00799547 29.0855 1.55958C32.8175 3.11117 36.0072 5.7386 38.2513 9.10967C40.4955 12.4807 41.6933 16.444 41.6933 20.4983C41.6872 25.9334 39.5332 31.1441 35.704 34.9872C31.8748 38.8303 26.683 40.9918 21.2679 40.9976ZM21.2679 1.55312C17.5347 1.55339 13.8854 2.66475 10.7815 4.74664C7.67754 6.82854 5.25841 9.78747 3.82996 13.2493C2.40152 16.7111 2.02791 20.5203 2.75639 24.1952C3.48487 27.8701 5.28272 31.2457 7.92259 33.8951C10.5625 36.5445 13.9258 38.3487 17.5873 39.0796C21.2488 39.8105 25.044 39.4353 28.493 38.0013C31.942 36.5673 34.8899 34.1391 36.9639 31.0236C39.0379 27.9081 40.145 24.2453 40.145 20.4983C40.1392 15.4754 38.1484 10.6599 34.6094 7.10846C31.0704 3.55697 26.2724 1.55958 21.2679 1.5545V1.55312Z" fill="white"/>
</svg>
